<svg xmlns="http://www.w3.org/2000/svg" version="1.1" width="1000"
     height="1000" viewBox="0 0 1000 1000" xml:space="preserve">
<desc>Created with Fabric.js 3.5.0</desc>
    <defs>
</defs>
    <rect x="0" y="0" width="100%" height="100%" fill="rgba(255,255,255,0)"/>
    <g transform="matrix(1.2466 0 0 1.2466 499.9831 499.9903)" id="249632">
<g style="" vector-effect="non-scaling-stroke">
		<g transform="matrix(1 0 0 1 183.1049 -17.4616)" id="Layer_1">
<path style="stroke: none; stroke-width: 1; stroke-dasharray: none; stroke-linecap: butt; stroke-dashoffset: 0; stroke-linejoin: miter; stroke-miterlimit: 4; is-custom-font: none; font-file-url: none; fill: rgb(5,56,107); fill-rule: nonzero; opacity: 1;"
      transform=" translate(-584.4903, -356.088)"
      d="M 756.84582 336.21432 c -13.90739 -24.20891 -26.26932 -35.54077 -24.72415 -41.72174 s -5.15076 -38.63133 -19.57311 -45.32748 c 0 0 5.66586 20.08836 -0.51511 27.81464 c 0 0 -33.4805 -60.78 -126.19557 -51.50844 c -92.71523 9.27145 -80.86825 -10.81676 -80.86825 -16.99773 c 0 0 -10.81677 26.26918 13.39214 37.08595 c 0 0 -31.42008 19.57325 -36.05588 31.93526 c 0 0 -21.11835 -10.81677 -18.02787 -25.75415 c 0 0 -20.60339 28.8447 0.51511 53.56871 c 0 0 -48.933 26.78429 -48.933 -24.209 c 0 0 -32.45029 59.74976 5.66593 86.53411 c 0 0 -5.15083 20.6034 6.181 33.48043 c 11.3318 12.87719 2.57538 18.54305 9.27145 30.90513 c 6.69607 12.36193 17.51284 13.90724 22.66374 33.99546 a 166.99869 166.99869 0 0 0 14.93746 37.08608 s -6.181 -37.08608 7.72613 -51.50844 c 13.90739 -14.42235 20.08836 -14.93745 20.08836 -14.93745 s 9.78655 9.7867 22.14863 6.18111 L 536.905 439.2312 s 21.11828 31.42008 53.05361 26.78429 s 27.81449 -32.9654 17.51283 -62.84017 c 0 0 23.6938 -5.666 38.63126 8.75635 s 36.571 -9.27145 36.571 -9.27145 s 8.24138 19.05807 28.32959 25.23911 s 18.543 75.80318 18.543 75.80318 s 3.26228 -53.65454 21.29022 -62.411 S 770.75292 360.4233 756.84582 336.21432 Z M 564.82773 442.65986 c -19.88663 5.59309 -29.75887 -9.15658 -29.75887 -9.15658 c 15.10838 -5.49391 33.42153 -25.18058 33.42153 -25.18058 S 579.47822 438.53938 564.82773 442.65986 Z"
      stroke-linecap="round"/>
</g>
    <g transform="matrix(1 0 0 1 202.504 140.2159)" id="Layer_1">
<path style="stroke: none; stroke-width: 1; stroke-dasharray: none; stroke-linecap: butt; stroke-dashoffset: 0; stroke-linejoin: miter; stroke-miterlimit: 4; is-custom-font: none; font-file-url: none; fill: rgb(5,56,107); fill-rule: nonzero; opacity: 1;"
      transform=" translate(-603.8895, -513.7655)"
      d="M 682.65633 466.44843 a 38.91258 38.91258 0 0 1 12.28154 10.3533 a 0.68788 0.68788 0 0 1 -0.29651 1.19556 l -23.01628 3.63155 c -22.66726 8.04274 -44.27189 22.07147 -54.03731 29.35717 a 22.674 22.674 0 0 1 -27.39652 0 c -9.76542 -7.2857 -31.37 -21.31443 -54.03731 -29.35717 l -23.01628 -3.63155 a 0.68793 0.68793 0 0 1 -0.29651 -1.19556 a 38.91477 38.91477 0 0 1 12.28154 -10.3533 c -23.65434 1.77323 -39.10617 12.82554 -45.40348 29.999 a 13.47726 13.47726 0 0 0 0.14378 12.579 l 12.31777 22.39342 a 12.15462 12.15462 0 0 0 4.87524 4.87919 l 33.88865 18.17964 c 7.53159 4.62809 17.966 6.60393 17.966 6.60393 s -3.11132 -3.43863 -6.30274 -7.00079 c 11.89231 -5.85365 37.06144 -18.10973 48.1172 -22.49039 A 22.52689 22.52689 0 0 1 599.03328 530 h 9.71261 a 22.52669 22.52669 0 0 1 8.308 1.59146 c 11.16154 4.42255 36.7086 16.87236 48.45581 22.657 c -3.12892 3.491 -6.12639 6.804 -6.12639 6.804 s 12.28124 -2.32567 19.813 -7.84079 L 710.723 536.29907 a 12.15328 12.15328 0 0 0 4.87509 -4.87919 L 727.916 509.02646 a 13.47769 13.47769 0 0 0 0.14378 -12.579 C 721.7625 479.274 706.31067 468.22166 682.65633 466.44843 Z M 546.49067 525.40682 a 10.67665 10.67665 0 0 1 -6.63255 -0.77324 l -12.1938 -5.715 a 8.64647 8.64647 0 0 1 -4.703 -5.15384 L 517.701 496.78285 c 15.877 -1.45179 38.06128 21.72126 52.15074 23.81425 C 565.02593 523.846 546.49067 525.40682 546.49067 525.40682 Z m 140.26068 -11.64209 a 8.64672 8.64672 0 0 1 -4.70314 5.15384 l -12.19365 5.715 a 10.67675 10.67675 0 0 1 -6.63254 0.77324 s -18.53527 -1.56079 -23.36121 -4.80972 c 14.08961 -2.093 36.27389 -25.266 52.15075 -23.81425 Z"
      stroke-linecap="round"/>
</g>
    <g transform="matrix(1 0 0 1 -201.47 0)" id="Layer_1">
<path style="stroke: none; stroke-width: 1; stroke-dasharray: none; stroke-linecap: butt; stroke-dashoffset: 0; stroke-linejoin: miter; stroke-miterlimit: 4; is-custom-font: none; font-file-url: none; fill: rgb(5,56,107); fill-rule: nonzero; opacity: 1;"
      transform=" translate(-199.9154, -373.5496)"
      d="M 288.24791 163.71886 c -11.71757 2.704 18.92846 105.45817 -9.91485 104.55677 s -31.54736 -9.01353 -78.41765 -9.01353 s -49.57434 8.11213 -78.41758 9.01353 s 1.80272 -101.85272 -9.91485 -104.55677 S 76.43026 241.235 67.41673 273.68372 c -22.968 58.70795 -30.646 241.5617 -30.646 241.5617 l 45.06758 23.43515 s 76.61493 18.02706 84.72713 24.33647 s 25.2378 18.6274 33.34993 20.43005 c 8.11221 -1.80265 25.23794 -14.12057 33.35007 -20.43005 s 84.72707 -24.33647 84.72707 -24.33647 l 45.06764 -23.43515 s 0 -141.38531 -30.646 -241.5617 C 323.40063 241.235 299.96549 161.01474 288.24791 163.71886 Z m -133.184 303.42066 q -0.12137 0.02322 -0.24508 0.04452 c -8.37549 1.44042 -45.02371 -7.75422 -53.04254 -16.70665 c -6.55053 -7.31336 -2.17661 -28.39562 -0.35526 -35.87066 a 1.82827 1.82827 0 0 1 2.87445 -1.0294 l 51.743 44.54022 C 161.19745 461.98238 161.39529 465.92922 155.06387 467.13952 Z m 148.08541 -16.66213 c -8.01875 8.95243 -44.667 18.14707 -53.04246 16.70665 q -0.1238 -0.02134 -0.24516 -0.04452 c -6.33134 -1.2103 -6.13343 -5.15714 -0.9746 -9.022 l 51.7431 -44.54022 a 1.82828 1.82828 0 0 1 2.87445 1.0294 C 305.32589 422.08177 309.69981 443.164 303.14928 450.47739 Z"
      stroke-linecap="round"/>
</g>
</g>
</g>
</svg>