<?xml version="1.0" encoding="UTF-8"?>
<svg xmlns="http://www.w3.org/2000/svg" height="300.0"
     preserveAspectRatio="xMidYMid meet" version="1.0" viewBox="-7.5 -3.9 414.7 300.0" width="414.7"
     zoomAndPan="magnify">
    <g id="change1_1">
        <path d="M98.916,40.692c-0.478,4.005-0.955,8.063-0.407,12.06c0.176,1.281,0.465,2.572,1.12,3.688 c0.654,1.116,1.72,2.044,2.991,2.281c1.177-1.116,2.804-2.443,3.513-3.902c0.91-1.874,0.909-4.056,0.688-6.128 c-0.229-2.144-0.701-4.333-1.944-6.096C103.634,40.834,101.042,40.334,98.916,40.692z"
              fill="inherit"/>
    </g>
    <g>
        <g>
            <g>
                <g id="change2_2">
                    <path d="M161.143,277.742c-0.107-15.764-1.674-33.299-2.003-43.095c-1.601-47.659-4.173-52.678-4.173-52.678 l-47.721,4.554l-38.286,4.672L61.43,295.801l50.673,0.15l3.351-29.426l0.518,29.437l45.121,0.134L161.143,277.742z"
                          fill="#007785"/>
                </g>
            </g>
            <g id="change1_28">
                <path d="M115.454,266.872c-0.134,0-0.262-0.078-0.318-0.21c-0.076-0.176,0.005-0.38,0.181-0.455l20.327-8.75 c0.176-0.076,0.38,0.005,0.456,0.182c0.076,0.176-0.005,0.38-0.181,0.455l-20.327,8.75 C115.546,266.863,115.5,266.872,115.454,266.872z"
                      fill="inherit"/>
            </g>
        </g>
    </g>
    <g>
        <g>
            <g id="change3_3">
                <path d="M208.343 265.843H407.221V276.591H208.343z" fill="#FFF"/>
            </g>
        </g>
    </g>
    <g opacity=".27">
        <g>
            <g id="change1_26">
                <path d="M208.343 265.843H407.221V276.591H208.343z" fill="inherit"/>
            </g>
        </g>
    </g>
    <g>
        <g>
            <g id="change1_18">
                <path d="M312.817 115.377L300.78 183.134 357.725 188.598 355.677 126.732z" fill="inherit"/>
            </g>
        </g>
    </g>
    <g>
        <g>
            <g id="change4_10">
                <path d="M333.01 139.225L335.837 181.26 315.283 181.68 315.729 153.967z" fill="#F8B498"/>
            </g>
        </g>
    </g>
    <g>
        <g>
            <g id="change5_4">
                <path d="M308.687,177.153l-2.422,0.293c-5.864,0.71-12.925,6.235-15.024,11.755l-15.817,37.107l6.611-27.55 l-19.696-3.971l-7.912,37.786c-1.602,5.649-1.884,11.591-0.821,17.366l0,0c1.144,6.221,6.51,10.774,12.834,10.889l0,0 c7.161,0.131,13.857-3.536,17.603-9.641l12.687-20.675l14.254,34.591l73.331,5.365c8.151,0.596,15.519-4.845,17.348-12.811l0,0 c1.591-6.933,0.608-14.208-2.768-20.469l-22.26-44.578c-1.01-2.023-2.352-3.97-3.937-5.768 c-5.829-6.614-14.386-10.177-23.203-10.212l-11.326-0.045L308.687,177.153z"
                      fill="#FF3E4D"/>
            </g>
        </g>
    </g>
    <g>
        <g>
            <g id="change1_33">
                <path d="M304.554,120.907c0,0-14.458-11.307,0.336-20.58c10.102-6.332,27.338,2.063,27.338,2.063L304.554,120.907z"
                      fill="inherit"/>
            </g>
        </g>
    </g>
    <g>
        <g>
            <g id="change1_20">
                <ellipse cx="328.314" cy="125.459" fill="inherit" rx="23.391" ry="27.852"
                         transform="rotate(-78.357 328.323 125.462)"/>
            </g>
        </g>
    </g>
    <g>
        <g>
            <g id="change1_34">
                <path d="M315.729 153.967L330.875 152.129 315.494 168.581z" fill="inherit"/>
            </g>
        </g>
    </g>
    <g>
        <g>
            <g id="change4_12">
                <path d="M337.763,141.255c-6.898,18.097-21.988,16.543-21.988,16.543c-12.819-0.196-19.079-8.434-20.277-18.48 c-0.921-7.725,4.225-19.171,6.99-25.701c0.933-2.203,2.515-4.098,4.623-5.245C325.164,98.546,348.754,112.421,337.763,141.255z"
                      fill="#F8B498"/>
            </g>
        </g>
    </g>
    <g>
        <g>
            <g>
                <g id="change1_35">
                    <path d="M304.565,138.109l-1.721-0.702c-0.571-0.287-0.814-0.97-0.526-1.607l1.774-2.861c0.127-0.204,0.396-0.266,0.601-0.141 c0.204,0.127,0.267,0.396,0.141,0.601l-1.746,2.807c-0.071,0.159-0.005,0.344,0.118,0.407l1.69,0.687 c0.223,0.091,0.33,0.345,0.239,0.568c-0.069,0.169-0.232,0.271-0.404,0.271C304.674,138.14,304.618,138.13,304.565,138.109z"
                          fill="inherit"/>
                </g>
            </g>
        </g>
        <g>
            <g>
                <g id="change1_19">
                    <circle cx="314.55" cy="131.641" fill="inherit" r="1.773"/>
                </g>
            </g>
        </g>
        <g>
            <g>
                <g id="change1_5">
                    <path d="M301.042,127.082c-0.896-0.15-1.743,0.453-1.894,1.349c-0.15,0.896,0.453,1.743,1.349,1.894s1.743-0.453,1.894-1.349 C302.541,128.08,301.937,127.233,301.042,127.082z"
                          fill="inherit"/>
                </g>
            </g>
        </g>
        <g>
            <g>
                <g id="change1_25">
                    <path d="M302.054,141.895c-0.202-0.133-0.257-0.402-0.125-0.603c0.131-0.201,0.402-0.255,0.603-0.125 c0.047,0.029,4.76,3.051,9.472,0.31c0.21-0.12,0.475-0.049,0.596,0.158c0.12,0.208,0.05,0.475-0.158,0.596 c-1.645,0.957-3.271,1.286-4.731,1.286C304.57,143.516,302.197,141.988,302.054,141.895z"
                          fill="inherit"/>
                </g>
            </g>
        </g>
        <g>
            <g>
                <g id="change1_31">
                    <path d="M301.581,117.685c-2.324,0.023-3.784,1.178-4.508,1.961c-0.357,0.386-0.442,0.947-0.23,1.428l0,0 c0.262,0.595,0.915,0.919,1.549,0.763c1.116-0.276,2.325-0.242,4.234-0.235c2.515,0.01,2.193-2.065,2.193-2.065 S304.567,117.656,301.581,117.685z"
                          fill="inherit"/>
                </g>
            </g>
        </g>
        <g>
            <g>
                <g id="change1_10">
                    <path d="M317.97,120.446c2.853,0.84,5.483,3.442,6.115,4.438c0.312,0.491,0.23,1.054-0.189,1.435l0,0 c-0.519,0.472-1.43,0.549-2.158,0.178c-1.282-0.654-3.995-2.039-6.347-2.704c-3.097-0.876-2.016-2.731-2.016-2.731 S314.306,119.368,317.97,120.446z"
                          fill="inherit"/>
                </g>
            </g>
        </g>
    </g>
    <g>
        <g>
            <g id="change1_21">
                <path d="M346.172,123.278C308.31,119.057,313.795,104,313.795,104C352.013,101.93,346.172,123.279,346.172,123.278z"
                      fill="inherit"/>
            </g>
        </g>
    </g>
    <g>
        <g>
            <g id="change1_15">
                <path d="M353.625 129.035L333.369 141.111 335.067 118.144z" fill="inherit"/>
            </g>
        </g>
    </g>
    <g>
        <g>
            <g>
                <g id="change4_5">
                    <path d="M343.339,135.533c-4.044-2.195-9.103-0.697-11.299,3.347c-2.195,4.044-0.697,9.104,3.347,11.299 s9.103,0.697,11.299-3.347C348.882,142.788,347.383,137.729,343.339,135.533z"
                          fill="#F8B498"/>
                </g>
            </g>
        </g>
        <g>
            <g>
                <g id="change4_3">
                    <path d="M336.017,144.128c2.368-5.88,7.519-2.897,7.519-2.897" fill="#F8B498"/>
                </g>
            </g>
        </g>
    </g>
    <g>
        <g>
            <g id="change4_8">
                <path d="M318.579,187.687c-15.97,0-9.89-10.533-9.89-10.533l5.658-0.903l27.44,0.266 C341.418,178.187,334.549,187.687,318.579,187.687z"
                      fill="#F8B498"/>
            </g>
        </g>
    </g>
    <g>
        <g>
            <g id="change4_9">
                <path d="M330.147,248.53l-20.582,2.84l0.374,10.284l20.655,4.248C330.594,265.901,330.234,252.073,330.147,248.53 z"
                      fill="#F8B498"/>
            </g>
        </g>
    </g>
    <g>
        <g>
            <g id="change1_29">
                <path d="M296.32,230.661c-0.031-0.085-3.014-8.542-1.357-17.986c1.642-9.361,3.031-13.578,3.045-13.62 c0.077-0.227,0.323-0.352,0.551-0.275c0.228,0.076,0.352,0.323,0.276,0.552c-0.014,0.041-1.384,4.208-3.013,13.495 c-1.616,9.209,1.29,17.457,1.319,17.539c0.081,0.227-0.037,0.477-0.263,0.558c-0.049,0.017-0.099,0.026-0.148,0.026 C296.55,230.95,296.383,230.839,296.32,230.661z"
                      fill="inherit"/>
            </g>
        </g>
    </g>
    <g>
        <g>
            <g>
                <g id="change1_30">
                    <path d="M304.284 228.38L305.934 225.13 309.493 226.86 307.915 230.118z" fill="inherit"/>
                </g>
            </g>
        </g>
        <g>
            <g>
                <g id="change1_12">
                    <path d="M287.022,268.296l-0.541,2.03c-0.116,0.435,0.204,0.566,0.464,0.189l1.215-1.762 C287.972,268.253,287.53,268.05,287.022,268.296z"
                          fill="inherit"/>
                </g>
            </g>
        </g>
        <g>
            <g>
                <g id="change2_1">
                    <path d="M304.425,228.072l1.821,0.876l1.816,0.862l-15.324,32.641l-0.082,0.173l-0.031-0.015l-4.579,6.377 c-0.2-0.468-0.641-0.664-1.134-0.464l1.833-7.505l-0.051-0.024l0.111-0.233L304.425,228.072z"
                          fill="#007785"/>
                </g>
            </g>
        </g>
        <g>
            <g>
                <g id="change4_6">
                    <path d="M305.784,225.446l0.417-0.825c0.578-1.143,1.831-1.678,2.8-1.194l0,0 c0.938,0.468,1.27,1.724,0.753,2.851l-0.406,0.886L305.784,225.446z"
                          fill="#F8B498"/>
                </g>
            </g>
        </g>
    </g>
    <g>
        <g>
            <g>
                <g id="change4_13">
                    <path d="M277.905,267.244c0.842,0.319,1.776,0.148,2.439-0.444l5.82-5.212c2.691-2.41,6.956-4.091,10.402-2.339 c1.066,0.542,1.931,1.436,2.893,2.133c2.446,1.773,5.398,1.593,8.217,0.946c1.988-0.456,3.892-1.275,5.602-2.385 c0.518-0.336,1.021-0.699,1.497-1.095c0.074-0.061,0.501-0.34,0.505-0.448c0-0.003,0.313-7.368,0.313-7.368l-21.556-0.323 c-4.011-0.06-7.813,1.648-10.429,4.687l-6.752,7.841C275.732,264.544,276.277,266.626,277.905,267.244z"
                          fill="#F8B498"/>
                </g>
            </g>
        </g>
    </g>
    <g>
        <g>
            <g id="change1_2">
                <path d="M330.335,248.496c-0.044-0.237,0.113-0.464,0.35-0.506l38.317-6.99l-11.67-24.714c-0.103-0.218-0.01-0.478,0.208-0.581 c0.22-0.1,0.478-0.009,0.581,0.209l11.912,25.227c0.058,0.123,0.055,0.265-0.007,0.386s-0.175,0.204-0.309,0.229l-38.875,7.092 c-0.026,0.005-0.052,0.008-0.079,0.008C330.556,248.854,330.372,248.706,330.335,248.496z"
                      fill="inherit"/>
            </g>
        </g>
    </g>
    <g>
        <g id="change2_3">
            <path d="M204.04 193.422L299.941 193.422 322.529 263.815 226.733 263.815z" fill="#007785"/>
        </g>
    </g>
    <g>
        <g id="change2_5">
            <path d="M226.733 262.112H353.625V271.09700000000004H226.733z" fill="#007785"/>
        </g>
    </g>
    <g>
        <g id="change3_4">
            <circle cx="258.635" cy="236.843" fill="#FFF" r="6.273"/>
        </g>
    </g>
    <g>
        <g id="change4_7">
            <path d="M74.345,121.317c0,0-47.755,63.74-47.755,63.739c-10.604,14.716-34.052-1.103-24.244-16.453l28.048-41.93 L74.345,121.317z"
                  fill="#F8B498"/>
        </g>
    </g>
    <g>
        <g id="change5_5">
            <path d="M58.604,162.33l-42.752-28.14c10.658-16.487,37.641-62.17,55.351-56.345 C119.341,96.745,66.53,149.309,58.604,162.33z"
                  fill="#FF3E4D"/>
        </g>
    </g>
    <g>
        <g id="change5_3">
            <path d="M152.498,129.248l21.031-4.849c-1.233-45.061-31.872-47.063-31.872-47.063L152.498,129.248z"
                  fill="#FF3E4D"/>
        </g>
    </g>
    <g>
        <g id="change5_1">
            <path d="M55.529,106.54l12.166,88.247h75.597c6.831-29.805,31.474-108.384,2.372-116.639 c-25.711-7.293-44.658-7.296-78.903-1C56.048,77.802,58.67,99.448,55.529,106.54z"
                  fill="#FF3E4D"/>
        </g>
    </g>
    <g>
        <g id="change1_16">
            <path d="M65.078,157.517l-8.153-34.461c-0.046-0.198,0.077-0.397,0.273-0.444c0.202-0.046,0.397,0.077,0.444,0.274l8.153,34.461 c0.046,0.198-0.077,0.397-0.273,0.444c-0.028,0.007-0.057,0.009-0.085,0.009C65.271,157.8,65.12,157.686,65.078,157.517z"
                  fill="inherit"/>
        </g>
    </g>
    <g>
        <g id="change1_14">
            <path d="M153.273,146.007c-0.2-0.03-0.34-0.217-0.312-0.417l4.909-34.461c0.03-0.2,0.202-0.344,0.418-0.312 c0.2,0.03,0.34,0.217,0.312,0.417l-4.91,34.462c-0.026,0.183-0.183,0.316-0.365,0.316 C153.309,146.012,153.292,146.011,153.273,146.007z"
                  fill="inherit"/>
        </g>
    </g>
    <g>
        <g id="change4_1">
            <path d="M102.296,160.893l27.27,0.932l12.09-25.711c-31.185-12.453-43.081,8.614-43.081,8.614L102.296,160.893z"
                  fill="#F8B498"/>
        </g>
    </g>
    <g>
        <g>
            <g>
                <g id="change4_14">
                    <path d="M103.639 160.414L19.689 190.341 14.79 159.096 100.477 144.401z" fill="#F8B498"/>
                </g>
            </g>
        </g>
        <g>
            <g id="change1_4">
                <path d="M24.132,157.494c-0.034-0.201,0.101-0.39,0.301-0.425l20.478-3.512c0.214-0.032,0.392,0.102,0.424,0.301 c0.034,0.2-0.101,0.39-0.301,0.425l-20.478,3.512c-0.022,0.004-0.042,0.005-0.062,0.005 C24.318,157.8,24.161,157.674,24.132,157.494z"
                      fill="inherit"/>
            </g>
        </g>
    </g>
    <g>
        <g id="change3_5">
            <path d="M220.575,122.564c-25.321-8.586-87.232,1.835-87.232,1.835l-34.501,81.014l5.68,6.311L220.575,122.564z"
                  fill="#FFF"/>
        </g>
    </g>
    <g>
        <g id="change1_8">
            <path d="M183.868,193.222c-5.201,10.093-19.488,10.159-19.488,10.159l39.573-78.552l16.62-2.266L183.868,193.222z"
                  fill="inherit"/>
        </g>
    </g>
    <g>
        <g id="change2_4">
            <path d="M167.045 203.011L104.521 211.725 138.181 130.519 207.115 124.398z" fill="#007785"/>
        </g>
    </g>
    <g opacity=".46">
        <g id="change1_13">
            <path d="M167.045 203.011L104.521 211.725 138.181 130.519 207.115 124.398z" fill="inherit"/>
        </g>
    </g>
    <g>
        <g id="change3_2">
            <path d="M189.102 120.634L204.516 85.233 212.462 85.233 220.573 122.563z" fill="#FFF"/>
        </g>
    </g>
    <g>
        <g id="change4_4">
            <path d="M193.255,175.006l-17.024-12.445c-1.002-0.732-1.316-2.09-0.735-3.188l0,0 c0.627-1.185,2.078-1.664,3.287-1.087l12.625,6.025l-14.797-10.775c-0.92-0.67-1.223-1.905-0.717-2.924l0,0 c0.58-1.169,2.006-1.635,3.165-1.035l14.533,7.532l-16.175-12.663c-1.11-0.869-1.401-2.43-0.675-3.641l0,0 c0.818-1.366,2.609-1.776,3.94-0.9l17.452,11.486l-11.548-11.094c-0.845-0.813-0.848-2.165-0.004-2.98l0,0 c0.713-0.69,1.817-0.776,2.629-0.205l19.458,13.691c0,0,7.527,6.289-0.242,18.141c-7.769,11.852-16.941,9.611-16.941,9.611 L193.255,175.006z"
                  fill="#F8B498"/>
        </g>
    </g>
    <g>
        <g id="change1_32">
            <path d="M143.104,32.527c17.632-16.951-1.401-23.898-1.401-23.898L143.104,32.527z" fill="inherit"/>
        </g>
    </g>
    <g>
        <g id="change4_2">
            <path d="M107.946 36.438L97.095 79.076 122.462 79.902 126.557 56.459z" fill="#F8B498"/>
        </g>
    </g>
    <g>
        <g id="change1_24">
            <path d="M126.126,59.077l-19.673-10.101c-0.581,15.892,17.6,21.779,17.6,21.779L126.126,59.077z"
                  fill="inherit"/>
        </g>
    </g>
    <g>
        <g id="change4_16">
            <path d="M101.427,34.778c-0.793,22.698,12.398,25.657,12.398,25.657c11.527,5.244,20.382,1.169,25.64-7.39 c4.132-6.728,5.101-23.341,5.326-30.144c0.069-2.036-1.756-8.073-2.917-9.747C130.04-3.912,102.607,0.945,101.427,34.778z"
                  fill="#F8B498"/>
        </g>
    </g>
    <g>
        <g id="change1_7">
            <path d="M138.115,38.849c0.904-0.02,1.655,0.697,1.675,1.601c0.02,0.904-0.697,1.655-1.601,1.675 c-0.904,0.02-1.655-0.697-1.675-1.601S137.211,38.871,138.115,38.849z"
                  fill="inherit"/>
        </g>
    </g>
    <g>
        <g id="change1_17">
            <path d="M123.924,35.796c0.904-0.02,1.655,0.697,1.675,1.601c0.02,0.904-0.697,1.655-1.601,1.675 c-0.904,0.02-1.655-0.697-1.675-1.601C122.302,36.567,123.018,35.818,123.924,35.796z"
                  fill="inherit"/>
        </g>
    </g>
    <g>
        <g id="change1_22">
            <path d="M129.952,46.9c-0.007-0.262,0.199-0.48,0.462-0.487l2.216-0.063l-0.42-5.301c-0.02-0.261,0.175-0.49,0.436-0.51 c0.257-0.04,0.488,0.175,0.51,0.435l0.459,5.798c0.009,0.129-0.035,0.257-0.121,0.354s-0.209,0.155-0.339,0.157l-2.717,0.078 c-0.004,0-0.009,0-0.013,0C130.167,47.36,129.957,47.156,129.952,46.9z"
                  fill="inherit"/>
        </g>
    </g>
    <g>
        <g id="change1_9">
            <path d="M127.029,26.067c-4.681-1.063-7.621,0.301-9.49,1.245c-0.912,0.46-1.481,1.385-1.203,2.368l0,0 c0.291,1.027,1.343,1.605,2.38,1.355c2.788-0.671,5.737-0.638,7.75-0.484c1.333,0.101,2.458-0.967,2.427-2.305l0,0 C128.868,27.167,128.079,26.305,127.029,26.067z"
                  fill="inherit"/>
        </g>
    </g>
    <g>
        <g id="change1_6">
            <path d="M137.667,28.475c3.145,0.424,4.56,2.598,5.439,4.053c0.429,0.71,0.521,1.751,0.081,2.59l0,0 c-0.46,0.877-1.261,1.101-1.823,0.55c-1.512-1.479-3.319-2.343-4.588-2.811c-0.841-0.311-1.231-1.656-0.845-2.904l0,0 C136.241,28.95,136.961,28.38,137.667,28.475z"
                  fill="inherit"/>
        </g>
    </g>
    <g>
        <g id="change1_11">
            <path d="M95.637,19.516c1.119-6.05,4.619-11.488,10.485-14.849c7.517-4.306,17.283-5.328,26.016-4.295 c7.309,0.864,13.488,4.487,15.308,11.099c2.714,9.857-5.924,12.955-10.273,12.728c-2.18-0.113-4.244-0.818-6.121-1.807 c-6.759-3.563-16.636-5.171-16.636-5.171c-1.386,15.513-13.121,22.9-13.121,22.9S94.288,26.806,95.637,19.516z"
                  fill="inherit"/>
        </g>
    </g>
    <g>
        <g id="change4_15">
            <path d="M100.32,25.979c4.411-0.265,8.201,3.096,8.466,7.507c0.265,4.411-3.096,8.2-7.507,8.465 c-4.411,0.265-8.2-3.096-8.465-7.507S95.91,26.243,100.32,25.979z"
                  fill="#F8B498"/>
        </g>
    </g>
    <g>
        <g id="change1_27">
            <path d="M103.475,37.216c-0.005-1.916-0.544-3.4-1.599-4.409c-1.632-1.562-4.012-1.48-4.022-1.481 c-0.229,0.015-0.483-0.19-0.494-0.453c-0.012-0.261,0.191-0.482,0.452-0.494c0.109-0.009,2.784-0.1,4.712,1.737 c1.254,1.195,1.892,2.91,1.899,5.1c0,0.262-0.213,0.475-0.475,0.476l0,0C103.688,37.691,103.477,37.48,103.475,37.216z"
                  fill="inherit"/>
        </g>
    </g>
    <g>
        <g id="change4_11">
            <path d="M135.202,77.202c0,0-6.485,15.314-23.376,14.554c-16.891-0.76-23.398-17.962-23.398-17.962 C114.482,69.519,135.202,77.202,135.202,77.202z"
                  fill="#F8B498"/>
        </g>
    </g>
    <g>
        <g id="change1_23">
            <path d="M121.912,50.863c-0.133-0.226-0.057-0.515,0.17-0.649c0.226-0.132,0.515-0.057,0.647,0.17 c2.458,4.194,8.865,2.555,8.93,2.539c0.241-0.069,0.511,0.083,0.58,0.336c0.067,0.253-0.083,0.513-0.336,0.58 c-0.126,0.034-1.468,0.379-3.182,0.379C126.449,54.218,123.521,53.612,121.912,50.863z"
                  fill="inherit"/>
        </g>
    </g>
    <g id="change3_1">
        <path d="M98.841 72.214L112.471 86.675 123.604 73.365 136.67 75.206 128.895 104.88 112.61 93.325 95.465 101.809 85.902 74.104z"
              fill="#FFF"/>
    </g>
    <g id="change1_3">
        <path d="M112.61 94.166L112.61 133.666" fill="inherit"/>
        <path d="M112.61,134.041c-0.207,0-0.375-0.168-0.375-0.375v-39.5c0-0.207,0.168-0.375,0.375-0.375s0.375,0.168,0.375,0.375v39.5 C112.985,133.873,112.817,134.041,112.61,134.041z"
              fill="inherit"/>
    </g>
    <g id="change5_2" opacity=".56">
        <path d="M303.215,142.977c0.474,0.684,1.255,0.977,2.004,1.141c1.653,0.363,3.456,0.243,4.888-0.769 c0.326-0.23,0.653-0.549,0.705-0.983c0.051-0.422-0.186-0.837-0.502-1.063c-0.315-0.226-0.695-0.298-1.066-0.339 c-1.539-0.169-3.08,0.115-4.62,0.02c-0.512-0.032-1.2-0.385-1.564,0.092C302.688,141.564,302.907,142.533,303.215,142.977z"
              fill="#FF3E4D"/>
    </g>
</svg>